<?xml version="1.0" encoding="UTF-8"?>
<svg width="1252px" height="533px" viewBox="0 0 1252 533" version="1.1" xmlns="http://www.w3.org/2000/svg" xmlns:xlink="http://www.w3.org/1999/xlink">
    <!-- Generator: Sketch 59.1 (86144) - https://sketch.com -->
    <title>Group 2</title>
    <desc>Created with Sketch.</desc>
    <defs>
        <path d="M108.66,232.74 C146.46,232.74 177.24,209.52 177.24,169.56 L177.232658,169.224094 C177.092541,165.428363 174.952584,145.26 171.3,145.26 C168.87,145.26 165.09,184.68 121.08,184.68 C97.59,184.68 62.49,163.89 62.49,112.32 C62.49,78.57 79.23,38.34 118.65,38.34 C152.94,38.34 138.09,63.72 149.16,63.72 C166.17,63.72 176.97,54.81 176.97,39.15 C176.97,9.99 140.79,0 117.3,0 C51.69,0 18.75,63.99 18.75,122.58 C18.75,177.12 47.37,232.74 108.66,232.74 Z M295.77,232.74 C350.31,232.74 371.64,193.59 371.64,146.88 C371.64,77.49 332.76,0 282.27,0 C231.78,0 192.9,77.49 192.9,146.88 C192.9,193.59 214.23,232.74 268.77,232.74 L295.77,232.74 Z M282.27,184.68 C253.65,184.68 236.64,172.53 236.64,140.94 C236.64,81.27 264.18,43.74 282.27,43.74 C300.36,43.74 327.9,81.27 327.9,140.94 C327.9,172.53 310.89,184.68 282.27,184.68 Z M532.02,4.05 L500.7,4.05 L500.20435,4.04507532 C496.797081,3.98552029 490.44,3.48822581 490.44,8.37 C490.44,15.39 508.26,31.59 508.26,88.56 C508.26,136.89 478.83,176.58 464.79,176.58 C458.31,176.58 426.72,136.89 426.72,88.56 C426.72,31.59 441.03,15.39 441.03,8.37 C441.03,3.31892308 431.868533,4.02648284 428.493891,4.04944943 L397.56,4.05 C392.7,4.05 382.98,5.4 382.98,69.66 C382.98,192.51 459.39,235.17 464.79,235.17 C480.99,235.17 547.68,168.21 547.68,75.06 C547.68,25.65 538.23,4.05 532.02,4.05 Z M684.03,60.75 C691.59,60.75 705.63,36.18 705.63,28.62 C705.63,20.79 677.82,0 638.67,0 C583.86,0 568.47,38.61 568.47,61.29 C568.47,84.0105 574.821048,110.435778 632.321849,128.776701 L636.984997,130.2416 C652.56852,135.203796 674.04,143.4726 674.04,162 C674.04,178.74 656.22,187.65 635.7,187.65 C577.65,187.65 582.24,132.84 577.65,132.84 C574.95,132.84 561.18,146.34 561.18,169.29 C561.18,212.22 600.06,232.74 638.4,232.74 C695.37,232.74 717.78,194.13 717.78,162.81 C717.78,137.16 706.17,109.89 649.47,90.99 L643.16101,88.8453374 C628.121937,83.693628 607.89,75.7728 607.89,58.86 C607.89,43.2 625.17,36.45 638.67,36.45 C666.75,36.45 677.28,60.75 684.03,60.75 Z M896.52,228.69 C905.16,228.69 905.16,152.28 905.16,139.32 C905.16,81.81 891.93,4.05 881.67,4.05 L846.3,4.05 C844.68,4.05 836.58,3.24 836.58,6.75 C836.58,10.26 860.34,48.87 860.34,74.52 C860.34,85.86 849.81,82.89 836.58,82.89 C799.86,82.89 799.86,90.99 791.49,90.99 C787.44,90.99 785.01,84.51 785.01,77.76 C785.01,49.14 803.37,9.99 803.37,6.48 C803.37,3.24 796.89,4.05 795.27,4.05 L758.55,4.05 C745.7196,4.05 740.298756,117.310356 740.191622,138.700156 L740.193871,143.302798 C740.238384,162.873936 740.7948,228.69 747.75,228.69 L787.44,228.69 C789.6,228.69 796.08,229.77 796.08,225.99 C796.08,224.91 795.54,223.02 795,221.94 C787.44,204.12 783.93,183.06 783.93,163.62 C783.93,132.3 813.09,119.34 840.36,119.34 C858.45,119.34 865.74,125.55 865.74,143.91 C865.74,170.64 857.91,196.02 848.46,220.86 C847.92,221.94 847.65,223.29 847.65,224.64 C847.65,228.289655 852.853118,228.663273 856.09593,228.691345 L896.52,228.69 Z M950.047104,228.691427 L988.59,228.69 C991.02,228.69 992.64,228.42 992.64,225.72 C992.64,221.94 979.14,177.39 979.14,108.27 C979.14,56.16 993.45,11.07 993.45,8.37 C993.45,3.24 986.7,4.05 983.19,4.05 L954.03,4.05 L953.743448,4.0453128 C948.884016,3.910896 935.4,1.8576 935.4,132.57 C935.4,232.8075 943.33881,228.781962 950.047104,228.691427 L950.047104,228.691427 Z M1107.27418,228.690801 L1078.77,228.69 C1073.64,228.69 1061.76,239.49 1061.76,161.19 C1061.76,100.98 1073.64,62.64 1073.64,52.65 L1073.64277,52.0003753 C1073.70706,44.2908473 1074.80757,39.69 1068.24,39.69 C1049.07,39.69 1015.32,70.74 1010.73,70.74 L1010.40047,70.7459461 C1008.2141,70.8200724 1006.98988,71.4502654 1006.95,64.6028236 L1006.95,64.26 C1006.95,55.89 1014.24,22.41 1018.29,14.85 C1020.99,9.72 1057.44,0 1093.89,0 C1137.36,0 1175.97,11.61 1175.97,24.3 C1175.97,36.18 1162.74,61.83 1159.77,61.83 C1155.18,61.83 1144.11,39.42 1124.67,39.42 C1108.3647,39.42 1105.55538,89.963757 1105.50082,115.076859 L1105.5,115.83 C1105.5,185.22 1120.35,219.24 1120.35,224.1 C1120.35,229.955143 1110.90573,228.727084 1107.27418,228.690801 L1107.27418,228.690801 Z" id="path-1"></path>
        <filter x="-5.2%" y="-25.5%" width="110.4%" height="151.0%" filterUnits="objectBoundingBox" id="filter-2">
            <feOffset dx="0" dy="0" in="SourceAlpha" result="shadowOffsetOuter1"></feOffset>
            <feGaussianBlur stdDeviation="20" in="shadowOffsetOuter1" result="shadowBlurOuter1"></feGaussianBlur>
            <feColorMatrix values="0 0 0 0 0.828639482   0 0 0 0 1   0 0 0 0 0.82946333  0 0 0 1 0" type="matrix" in="shadowBlurOuter1"></feColorMatrix>
        </filter>
        <path d="M71.82,450.44 L100.17,450.44 C103.68,450.44 113.4,451.79 113.4,445.85 C113.4,441.0386 98.845515,407.647484 98.5544253,339.651095 L98.55,337.58 C98.55,312.74 101.25,261.17 117.72,261.17 C137.16,261.17 148.23,283.58 152.82,283.58 C155.79,283.58 169.02,257.93 169.02,246.05 C169.02,233.36 130.41,221.75 86.94,221.75 C50.49,221.75 14.04,231.47 11.34,236.6 C7.33132653,244.082857 0.148438151,276.959434 0.00226598824,285.745986 L0,286.01 C0,293.57 1.35,292.49 3.78,292.49 C8.37,292.49 42.12,261.44 61.29,261.44 C68.04,261.44 66.69,266.3 66.69,274.4 C66.69,284.39 54.81,322.73 54.81,382.94 C54.81,461.24 66.69,450.44 71.82,450.44 Z M234.63,329.75 C226.720588,329.75 226.277041,319.452256 226.260547,313.688548 L226.26,313.28 C225.9927,267.0371 236.575107,257.84198 260.627028,257.662702 L261.36,257.66 C275.94,257.66 291.87,263.87 291.87,280.88 C291.87,305.72 243.81,329.75 234.63,329.75 Z M272.7,225.8 L201.15,225.8 L200.863448,225.795313 C196.004016,225.660896 182.52,223.6076 182.52,354.32 C182.52,454.5575 190.45881,450.531962 197.167104,450.441427 L228.69,450.44 C231.39,450.44 238.14,451.79 238.14,447.2 C238.14,445.31 228.15,408.32 228.15,387.8 C228.15,372.68 247.86,361.61 255.96,361.61 C271.62,361.61 293.22,416.42 293.22,446.93 C293.22,451.25 301.59,450.44 306.45,450.44 L336.96,450.44 C342.63,450.44 343.71,449.9 343.71,446.93 C343.71,383.21 295.11,347.84 295.11,340.28 C295.11,332.72 335.61,319.49 335.61,276.29 C335.61,253.34 322.92,225.8 272.7,225.8 Z M508.14,450.44 C516.24,450.44 527.85,457.73 527.85,385.64 C527.85,260.36 458.19,221.75 449.28,221.75 C437.4,221.75 357.21,275.48 357.21,391.04 L357.214586,393.132932 C357.365196,427.10228 361.2654,450.44 374.76,450.44 L413.37,450.44 C416.88,450.44 418.5,450.17 418.5,448.55 C418.5,444.5 400.95,421.55 400.95,400.22 C400.95,369.7478 439.320915,365.209046 463.92858,365.121318 L464.67,365.12 C476.82,365.12 488.43,369.71 488.43,381.86 C488.43,412.64 467.64,439.64 467.64,447.2 C467.64,451.25 475.47,450.44 477.9,450.44 L508.14,450.44 Z M450.36,267.92 C460.62,267.92 480.6,303.02 480.6,319.76 C480.6,327.1184 476.507328,328.593584 467.575071,328.667028 L466.83,328.67 C443.07,328.67 416.88,335.69 412.02,335.69 C408.78,335.69 406.89,333.8 406.89,330.56 C406.89,310.85 435.78,267.92 450.36,267.92 Z M633.42,454.49 C671.22,454.49 702,431.27 702,391.31 L701.992658,390.974094 C701.852541,387.178363 699.712584,367.01 696.06,367.01 C693.63,367.01 689.85,406.43 645.84,406.43 C622.35,406.43 587.25,385.64 587.25,334.07 C587.25,300.32 603.99,260.09 643.41,260.09 C677.7,260.09 662.85,285.47 673.92,285.47 C690.93,285.47 701.73,276.56 701.73,260.9 C701.73,231.74 665.55,221.75 642.06,221.75 C576.45,221.75 543.51,285.74 543.51,344.33 C543.51,398.87 572.13,454.49 633.42,454.49 Z M742.297104,450.441427 L780.84,450.44 C783.27,450.44 784.89,450.17 784.89,447.47 C784.89,443.69 771.39,399.14 771.39,330.02 C771.39,277.91 785.7,232.82 785.7,230.12 C785.7,224.99 778.95,225.8 775.44,225.8 L746.28,225.8 L745.993448,225.795313 C741.134016,225.660896 727.65,223.6076 727.65,354.32 C727.65,454.5575 735.58881,450.531962 742.297104,450.441427 L742.297104,450.441427 Z M933.93,450.44 L962.28,450.44 C969.03,450.44 977.13,455.57 977.13,354.32 C977.13,220.94 964.44,225.8 958.5,225.8 L937.98,225.8 C932.85,225.8 926.91,224.99 926.91,228.77 C926.91,234.9179 940.405977,278.907461 940.675897,328.777034 L940.687865,331.292453 C940.743905,335.787456 941.012308,345.68 938.52,345.68 C936.09,345.68 934.74,342.17 933.93,340.82 C883.44,247.4 862.92,225.8 852.66,225.8 L831.33,225.8 L831.043448,225.795313 C826.184016,225.660896 812.7,223.6076 812.7,354.32 C812.7,454.5575 820.63881,450.531962 827.347104,450.441427 L852.66,450.44 C855.09,450.44 860.22,451.52 860.22,448.01 C860.22,434.3777 849.370293,407.249423 849.153299,332.829655 L849.15,330.56 C849.15,325.16 847.26,295.73 854.01,295.73 C862.5636,295.73 885.936312,340.187336 889.80866,348.149962 L889.92,348.38 C932.04,433.7 915.3,450.44 933.93,450.44 Z M1091.07,454.49 C1028.43,454.49 997.38,411.29 997.38,351.08 C997.38,287.36 1032.75,221.75 1097.28,221.75 C1120.77,221.75 1156.95,231.74 1156.95,260.9 C1156.95,276.56 1146.15,285.47 1129.14,285.47 C1118.07,285.47 1132.92,260.09 1098.63,260.09 C1055.97,260.09 1041.12,308.42 1041.12,345.95 C1041.12,375.38 1049.49,406.43 1084.86,406.43 C1101.6,406.43 1119.69,399.41 1119.69,380.51 C1119.69,358.64 1098.36,356.75 1098.36,349.73 C1098.36,346.22 1144.8,329.48 1148.04,329.48 C1153.44,329.48 1159.65,395.36 1159.65,403.46 C1159.65,438.83 1124.55,454.49 1091.07,454.49 Z" id="path-3"></path>
        <filter x="-5.2%" y="-25.8%" width="110.3%" height="151.6%" filterUnits="objectBoundingBox" id="filter-4">
            <feOffset dx="0" dy="0" in="SourceAlpha" result="shadowOffsetOuter1"></feOffset>
            <feGaussianBlur stdDeviation="20" in="shadowOffsetOuter1" result="shadowBlurOuter1"></feGaussianBlur>
            <feColorMatrix values="0 0 0 0 0.828639482   0 0 0 0 1   0 0 0 0 0.82946333  0 0 0 1 0" type="matrix" in="shadowBlurOuter1"></feColorMatrix>
        </filter>
    </defs>
    <g id="wip" stroke="none" stroke-width="1" fill="none" fill-rule="evenodd">
        <g id="Group-2" transform="translate(39.000000, 39.310000)" fill-rule="nonzero">
            <g id="COVSHIT">
                <use fill="black" fill-opacity="1" filter="url(#filter-2)" xlink:href="#path-1"></use>
                <use fill="#0DCE77" xlink:href="#path-1"></use>
            </g>
            <g id="TRACING">
                <use fill="black" fill-opacity="1" filter="url(#filter-4)" xlink:href="#path-3"></use>
                <use fill="#0DCE77" xlink:href="#path-3"></use>
            </g>
        </g>
    </g>
</svg>