<?xml version="1.0" encoding="UTF-8"?>
<svg width="162px" height="21px" viewBox="0 0 162 21" version="1.1" xmlns="http://www.w3.org/2000/svg" xmlns:xlink="http://www.w3.org/1999/xlink">
    <!-- Generator: Sketch 53.1 (72631) - https://sketchapp.com -->
    <title>Group</title>
    <desc>Created with Sketch.</desc>
    <g id="Page-1" stroke="none" stroke-width="1" fill="none" fill-rule="evenodd">
        <g id="Desktop-HD" transform="translate(-6.000000, -3.000000)" stroke="#000000">
            <g id="Group" transform="translate(6.635893, 3.756094)">
                <path d="M0,10.0976419 C0.382422697,7.57994239 -0.456432451,0.566361589 1.14726809,2.54454327 L5.18464213,0 C7.54532919,2.91193261 4.59660898,9.18455149 7.92630637,10.9065591 C10.4627201,12.2183071 7.5865437,2.52949735 10.4359929,2.71582216 L13.5851206,1.6490852 C19.3556849,2.02642104 14.5853172,8.60524704 15.8189579,11.4197948 C15.9126084,11.6334581 16.7388962,2.30078131 20.6231806,4.10107777 C22.4031696,4.92607087 23.2864141,7.05321016 24.1431121,8.81815857 C24.9818258,10.5460561 25.1255118,12.5318055 25.6167116,14.3886289" id="Path-17"></path>
                <path d="M30.1967693,13.6079578 C36.0367378,14.2632236 43.2059838,8.90180918 34.3855899,5.39798952 C28.7956259,3.17742819 27.7017671,11.0098704 31.8338349,13.9481117" id="Path-18"></path>
                <path d="M40.5852848,6.79105785 C40.5852848,16.8482987 43.4013305,13.9184481 46.2254687,5.59571147" id="Path-19"></path>
                <path d="M56.140124,5.59511049 C35.5513019,7.65059921 73.3149027,13.9904815 57.7585593,19.2180927 C56.0074141,19.806554 54.0977985,18.7180786 52.2674181,18.4680715" id="Path-21"></path>
                <path d="M83.2679849,4.86552251 C83.7385511,7.88644146 84.2091173,10.9073604 84.6796836,13.9282794" id="Path-20"></path>
                <path d="M80.0641681,7.0897442 C89.8355257,-6.15654305 97.4364982,23.4794649 81.4740639,15.7738845" id="Path-24"></path>
                <path d="M66.9829793,5.34390145 C57.9600498,5.88728462 61.2129851,15.5401996 70.665776,13.1674405" id="Path-22"></path>
                <path d="M58.4424729,11.0904585 C60.4671697,10.6835961 62.4918665,10.2767336 64.5165633,9.86987107" id="Path-23"></path>
                <path d="M94.8350195,15.7083779 C94.4196656,9.27223718 95.1165586,-2.88675207 103.934436,7.61800436 C104.438812,8.21886805 104.403615,9.33134172 103.950061,9.97143645 C103.181778,11.0557059 100.233649,10.9744458 100.665714,12.2311159 L92.518848,12.5790825 C93.4911239,15.4069719 99.6138862,11.7591433 101.342415,14.1993207" id="Path-25"></path>
                <path d="M106.534269,14.5250511 C107.94611,0.624058401 112.317207,8.21947721 115.327788,17.0365405" id="Path-26"></path>
                <path d="M105.233752,11.835071 C108.532723,11.9680876 111.831695,12.1011042 115.130667,12.2341208" id="Path-27"></path>
                <path d="M117.216062,6.00617984 C119.370444,21.5412748 117.758124,12.2833987 123.785359,7.8049087 C126.627394,5.69315688 125.463926,28.9045772 128.557129,4.45445317" id="Path-28"></path>
                <path d="M134.648648,6.08310509 C133.880397,8.74564049 133.112146,11.4081759 132.343895,14.0707113" id="Path-29"></path>
                <path d="M133.757998,4.09987581 C132.229146,9.26830837 137.443821,-4.31057937 132.634769,5.40520127" id="Path-30"></path>
                <path d="M136.671542,14.0689083 C142.915691,-12.4521769 136.838576,36.389176 146.215682,3.77294347" id="Path-31"></path>
                <path d="M153.150975,5.25135075 C149.806758,6.33351267 149.721688,5.45999892 148.987997,9.1511007 C146.92803,19.5145147 174.016532,12.5247861 151.908752,9.6613315" id="Path-32"></path>
            </g>
        </g>
    </g>
</svg>