<svg xmlns="http://www.w3.org/2000/svg" viewBox="0 0 440.83 79.09"><defs><style>.cls-1{fill:#1d1d1b;}</style></defs><title>back_1</title><g id="Layer_2" data-name="Layer 2"><g id="Layer_1-2" data-name="Layer 1"><path class="cls-1" d="M59,64.55c-3.42,7.59-10.26,14.54-24.36,14.54C9.51,79.09,0,59.53,0,39.54S11.44,0,34.41,0c17.32,0,26,11,29.39,20.41L56.54,21.8C53.76,14.53,46.92,6.41,34.41,6.41,16.35,6.41,7.48,22.87,7.48,39.54s7.59,33.13,27.15,33.13c11.43,0,24-7.37,24-28.75H34.41V37.51H65.62V77.27H59Z"/><path class="cls-1" d="M74.91,39.86C74.91,20.2,85.28,0,109.22,0c23.62,0,34,20.2,34,39.86s-10.37,39.23-34,39.23C85.28,79.09,74.91,59.53,74.91,39.86Zm60.81,0c0-16.56-8-33.45-26.5-33.45C90.52,6.41,82.4,23.3,82.4,39.86s8.12,32.81,26.82,32.81C127.71,72.67,135.72,56.32,135.72,39.86Z"/><path class="cls-1" d="M178.36,1.82h30c12.29,0,23.3,5.87,23.3,19.66,0,11-8.23,16.35-13.57,16.89,10.26,2,16.35,6.94,16.35,18.38,0,15.28-11.54,20.52-26.08,20.52h-30Zm27,33.45c8.34,0,18.92-2.46,18.92-13.9,0-9-7.81-13.14-15.93-13.14H185.52v27Zm4.17,35.59c11.11,0,17.53-4.39,17.53-13.79s-5.67-15.39-22-15.39H185.52V70.86Z"/><path class="cls-1" d="M266.1,1.82h10.47l28.22,75.45h-8L288,53.86H254.24l-8.76,23.41h-8Zm19.56,45.63L271.12,7.8,256.59,47.45Z"/><path class="cls-1" d="M373.19,53.33c-1.71,9.94-10.05,25.76-30.89,25.76-25,0-34.74-19.56-34.74-39.55S319,0,342.08,0c19.35,0,28.22,14,30.46,23.83l-7.26,1.29c-1.93-7.91-8.66-18.71-23.2-18.71-17.95,0-27,16.46-27,33.13s7.69,33.13,27.25,33.13c15.92,0,22.23-12.71,23.62-20.62Z"/><path class="cls-1" d="M383.76,1.82h7.16V37.08L426.08,1.82h9.62L399.9,36.87l40.93,40.4H430.68L390.92,37.94V77.27h-7.16Z"/></g></g></svg>