<svg xmlns="http://www.w3.org/2000/svg" viewBox="0 0 342.23 78.16"><defs><style>.cls-1{fill:#1d1d1b;}</style></defs><title>logo_1</title><g id="Layer_2" data-name="Layer 2"><g id="Layer_1-2" data-name="Layer 1"><path class="cls-1" d="M0,1.8H46.9V8.13H7.08v26H44.57v6.33H7.08V76.36H0Z"/><path class="cls-1" d="M57,1.8h7.07V76.36H57Z"/><path class="cls-1" d="M134.78,63.8c-3.38,7.49-10.14,14.36-24.09,14.36-24.82,0-34.22-19.33-34.22-39.08S87.77,0,110.48,0c17.11,0,25.67,10.88,29.05,20.17l-7.18,1.38c-2.75-7.18-9.51-15.21-21.87-15.21-17.85,0-26.61,16.26-26.61,32.74s7.5,32.74,26.82,32.74c11.31,0,23.77-7.28,23.77-28.41h-24V37.07h30.84V76.36h-6.54Z"/><path class="cls-1" d="M154,1.8h7.08V50.91c0,12,7.5,20.91,21.12,20.91s20.92-8.13,20.92-20.91V1.8h7.07V50.91c0,17.85-11.51,27.25-28,27.25C162,78.16,154,65,154,50.91Z"/><path class="cls-1" d="M226,1.8h28.83c17.54,0,24.3,8,24.3,19.54,0,12.46-8.45,16.79-12.47,17.63,6.45.85,11.94,4.76,11.94,14.26V64.64c0,3.8.32,7.5,4.44,11.72h-8.46c-2.95-3.69-3.27-7-3.27-10.66V54.08c0-10.14-6-11.41-15.31-11.41H233.12V76.36H226Zm30,34.53c15.73,0,15.84-11.93,15.84-15,0-7.4-4.54-13.21-17-13.21H233.12v28.2Z"/><path class="cls-1" d="M294.38,1.8h46.9V8.13H301.46V34.54H339.9v6.34H301.46V70h40.77v6.33H294.38Z"/></g></g></svg>